<svg width="4103" height="4122" viewBox="0 0 4103 4122" fill="none" xmlns="http://www.w3.org/2000/svg">
<path d="M3256.7 393.609L845.487 3728.35" stroke="#124066" stroke-width="2" stroke-miterlimit="10"/>
<path d="M3501.44 603.644L600.748 3518.31" stroke="#124066" stroke-width="2" stroke-miterlimit="10"/>
<path d="M3710.47 849.561L391.719 3272.4" stroke="#124066" stroke-width="2" stroke-miterlimit="10"/>
<path d="M3878.64 1125.32L223.561 2996.64" stroke="#124066" stroke-width="2" stroke-miterlimit="10"/>
<path d="M4001.81 1424.1L100.393 2697.85" stroke="#124066" stroke-width="2" stroke-miterlimit="10"/>
<path d="M4076.95 1738.57L25.2534 2383.39" stroke="#124066" stroke-width="2" stroke-miterlimit="10"/>
<path d="M4102.19 2060.97H0" stroke="#124066" stroke-width="2" stroke-miterlimit="10"/>
<path d="M4076.95 2383.39L25.2534 1738.57" stroke="#124066" stroke-width="2" stroke-miterlimit="10"/>
<path d="M4001.81 2697.85L100.393 1424.1" stroke="#124066" stroke-width="2" stroke-miterlimit="10"/>
<path d="M3878.64 2996.64L223.561 1125.32" stroke="#124066" stroke-width="2" stroke-miterlimit="10"/>
<path d="M3710.47 3272.4L391.719 849.561" stroke="#124066" stroke-width="2" stroke-miterlimit="10"/>
<path d="M3501.44 3518.31L600.748 603.644" stroke="#124066" stroke-width="2" stroke-miterlimit="10"/>
<path d="M3256.7 3728.35L845.487 393.609" stroke="#124066" stroke-width="2" stroke-miterlimit="10"/>
<path d="M2982.28 3897.33L1119.93 224.63" stroke="#124066" stroke-width="2" stroke-miterlimit="10"/>
<path d="M2684.93 4021.08L1417.28 100.873" stroke="#124066" stroke-width="2" stroke-miterlimit="10"/>
<path d="M2371.96 4096.58L1730.23 25.377" stroke="#124066" stroke-width="2" stroke-miterlimit="10"/>
<path d="M2051.1 4121.96V0" stroke="#124066" stroke-width="2" stroke-miterlimit="10"/>
<path d="M1730.23 4096.58L2371.96 25.377" stroke="#124066" stroke-width="2" stroke-miterlimit="10"/>
<path d="M1417.28 4021.08L2684.93 100.873" stroke="#124066" stroke-width="2" stroke-miterlimit="10"/>
<path d="M1119.93 3897.33L2982.28 224.63" stroke="#124066" stroke-width="2" stroke-miterlimit="10"/>
<path d="M845.487 3728.35L3256.7 393.609" stroke="#124066" stroke-width="2" stroke-miterlimit="10"/>
<path d="M391.719 3272.4L3710.47 849.561" stroke="#124066" stroke-width="2" stroke-miterlimit="10"/>
<path d="M100.393 2697.85L4001.81 1424.1" stroke="#124066" stroke-width="2" stroke-miterlimit="10"/>
</svg>
