<svg width="43" height="43" viewBox="0 0 43 43" fill="none" xmlns="http://www.w3.org/2000/svg">
<path d="M21.0083 0.699219C15.3033 0.699219 14.5873 0.724164 12.3466 0.826134C10.1103 0.928541 8.58381 1.28259 7.24814 1.80206C5.86652 2.33861 4.69453 3.05633 3.52691 4.22438C2.35842 5.392 1.6407 6.56399 1.10241 7.94517C0.581619 9.28127 0.227133 10.8082 0.126477 13.0436C0.026258 15.2843 0 16.0007 0 21.7058C0 27.4108 0.0253833 28.1246 0.126915 30.3653C0.22976 32.6016 0.583808 34.1281 1.10284 35.4638C1.63982 36.8454 2.35755 38.0174 3.5256 39.185C4.69278 40.3535 5.86477 41.073 7.24551 41.6095C8.58206 42.129 10.109 42.483 12.3449 42.5854C14.5856 42.6874 15.3011 42.7123 21.0057 42.7123C26.7112 42.7123 27.4249 42.6874 29.6656 42.5854C31.902 42.483 33.4302 42.129 34.7667 41.6095C36.1479 41.073 37.3182 40.3535 38.4853 39.185C39.6538 38.0174 40.3715 36.8454 40.9098 35.4642C41.4263 34.1281 41.7807 32.6012 41.8858 30.3657C41.9864 28.125 42.0127 27.4108 42.0127 21.7058C42.0127 16.0007 41.9864 15.2848 41.8858 13.0441C41.7807 10.8078 41.4263 9.28127 40.9098 7.94561C40.3715 6.56399 39.6538 5.392 38.4853 4.22438C37.3168 3.05589 36.1484 2.33817 34.7654 1.80206C33.4263 1.28259 31.8989 0.928541 29.6626 0.826134C27.4219 0.724164 26.7085 0.699219 21.0017 0.699219H21.0083ZM19.1238 4.48478C19.6832 4.4839 20.3072 4.48478 21.0083 4.48478C26.6171 4.48478 27.2818 4.50491 29.4967 4.60556C31.5449 4.69922 32.6565 5.04145 33.3969 5.32898C34.3772 5.70972 35.0761 6.16486 35.8109 6.90009C36.5462 7.63532 37.0013 8.33554 37.3829 9.31585C37.6705 10.0555 38.0131 11.1671 38.1063 13.2152C38.207 15.4296 38.2289 16.0948 38.2289 21.701C38.2289 27.3071 38.207 27.9723 38.1063 30.1867C38.0127 32.2349 37.6705 33.3465 37.3829 34.0861C37.0022 35.0664 36.5462 35.7644 35.8109 36.4992C35.0757 37.2344 34.3777 37.6896 33.3969 38.0703C32.6573 38.3592 31.5449 38.7005 29.4967 38.7942C27.2823 38.8948 26.6171 38.9167 21.0083 38.9167C15.3991 38.9167 14.7344 38.8948 12.5199 38.7942C10.4718 38.6997 9.36017 38.3574 8.61926 38.0699C7.63895 37.6892 6.93873 37.234 6.2035 36.4988C5.46827 35.7635 5.01313 35.0651 4.63151 34.0843C4.34398 33.3447 4.00131 32.2331 3.9081 30.185C3.80744 27.9706 3.78731 27.3053 3.78731 21.6957C3.78731 16.0861 3.80744 15.4244 3.9081 13.2099C4.00175 11.1618 4.34398 10.0502 4.63151 9.30972C5.01225 8.32941 5.46827 7.6292 6.2035 6.89397C6.93873 6.15874 7.63895 5.70359 8.61926 5.32198C9.35974 5.03314 10.4718 4.69178 12.5199 4.59769C14.4578 4.51016 15.2088 4.4839 19.1238 4.47953V4.48478ZM32.2214 7.97274C30.8298 7.97274 29.7007 9.10053 29.7007 10.4927C29.7007 11.8843 30.8298 13.0134 32.2214 13.0134C33.6131 13.0134 34.7422 11.8843 34.7422 10.4927C34.7422 9.10097 33.6131 7.97187 32.2214 7.97187V7.97274ZM21.0083 10.918C15.0508 10.918 10.2206 15.7482 10.2206 21.7058C10.2206 27.6633 15.0508 32.4913 21.0083 32.4913C26.9659 32.4913 31.7943 27.6633 31.7943 21.7058C31.7943 15.7482 26.9659 10.918 21.0083 10.918ZM21.0083 14.7036C24.8753 14.7036 28.0105 17.8384 28.0105 21.7058C28.0105 25.5727 24.8753 28.708 21.0083 28.708C17.1409 28.708 14.0061 25.5727 14.0061 21.7058C14.0061 17.8384 17.1409 14.7036 21.0083 14.7036Z" fill="white"/>
</svg>
