<svg width="36" height="37" viewBox="0 0 36 37" fill="none" xmlns="http://www.w3.org/2000/svg">
<path d="M8.0505 11.9648H0V36.7148H8.0505V11.9648Z" fill="white"/>
<path d="M29.979 12.2551C29.8935 12.2281 29.8125 12.1988 29.7225 12.1741C29.6145 12.1493 29.5065 12.1291 29.3962 12.1111C28.9688 12.0256 28.5008 11.9648 27.9518 11.9648C23.2583 11.9648 20.2815 15.3781 19.3005 16.6966V11.9648H11.25V36.7148H19.3005V23.2148C19.3005 23.2148 25.3845 14.7413 27.9518 20.9648C27.9518 26.5201 27.9518 36.7148 27.9518 36.7148H36V20.0131C36 16.2736 33.4373 13.1573 29.979 12.2551Z" fill="white"/>
<path d="M3.9375 8.58984C6.11212 8.58984 7.875 6.82696 7.875 4.65234C7.875 2.47772 6.11212 0.714844 3.9375 0.714844C1.76288 0.714844 0 2.47772 0 4.65234C0 6.82696 1.76288 8.58984 3.9375 8.58984Z" fill="white"/>
</svg>
