<svg width="38" height="29" viewBox="0 0 38 29" fill="none" xmlns="http://www.w3.org/2000/svg">
<path d="M2.58059 28.9136H8.60197V14.3499L0 7.9248V26.3435C0 27.7656 1.15696 28.9136 2.58059 28.9136Z" fill="white"/>
<path d="M29.0745 28.9136H35.0959C36.5238 28.9136 37.6765 27.7614 37.6765 26.3435V7.9248L29.0745 14.3499" fill="white"/>
<path d="M29.0745 3.28575V14.4624L37.6765 8.01432V4.57536C37.6765 1.38573 34.0336 -0.432619 31.4831 1.4803" fill="white"/>
<path d="M8.60188 14.3607V3.27979L18.8382 10.9512L29.0746 3.27979V14.3607L18.8382 22.0321" fill="white"/>
<path d="M0 4.57536V8.01432L8.60197 14.4624V3.28575L6.19342 1.4803C3.63863 -0.432619 0 1.38573 0 4.57536Z" fill="white"/>
</svg>
