<svg width="41" height="30" viewBox="0 0 41 30" fill="none" xmlns="http://www.w3.org/2000/svg">
<path fill-rule="evenodd" clip-rule="evenodd" d="M36.5187 1.82194C38.2838 2.2965 39.6712 3.6897 40.1436 5.46254C40.9975 8.67263 41.0009 15.3742 41.0009 15.3742C41.0009 15.3742 41.0009 22.0758 40.1436 25.2859C39.6712 27.0587 38.2838 28.4519 36.5187 28.9264C33.3226 29.7874 20.5004 29.7874 20.5004 29.7874C20.5004 29.7874 7.67838 29.7874 4.48214 28.9264C2.71697 28.4519 1.3298 27.0587 0.857279 25.2859C0 22.0758 0 15.3742 0 15.3742C0 15.3742 0 8.67263 0.857279 5.46254C1.3298 3.6897 2.71697 2.2965 4.48214 1.82194C7.67838 0.960938 20.5004 0.960938 20.5004 0.960938C20.5004 0.960938 33.3226 0.960938 36.5187 1.82194ZM27.0484 15.3744L16.3965 21.5505V9.19824L27.0484 15.3744Z" fill="white"/>
</svg>
